<svg xmlns="http://www.w3.org/2000/svg" ><g stroke-miterlimit="10" data-paper-data="{&quot;isPaintingLayer&quot;:true}" style="mix-blend-mode:normal"><path fill="red" d="M12.309 48C5.51 48 0 42.842 0 36.48V11.52C0 5.158 5.51 0 12.309 0h26.668c6.798 0 12.309 5.158 12.309 11.52v24.96c0 6.362-5.511 11.52-12.309 11.52z"/><path fill="#fff" d="M42.923 20.148c1.06 0 1.92.86 1.92 1.92v7.68a9.6 9.6 0 0 1-9.6 9.6H12.998l2.482 2.483a1.92 1.92 0 1 1-2.715 2.714l-7.117-7.117 7.117-7.117a1.92 1.92 0 1 1 2.715 2.714l-2.482 2.483h22.245a5.76 5.76 0 0 0 5.76-5.76v-7.68c0-1.06.86-1.92 1.92-1.92M35.805 3.431a1.92 1.92 0 0 1 2.715 0l7.118 7.117-7.118 7.117a1.92 1.92 0 1 1-2.715-2.714l2.483-2.483H16.043a5.76 5.76 0 0 0-5.76 5.76v7.68a1.92 1.92 0 0 1-3.84 0v-7.68a9.6 9.6 0 0 1 9.6-9.6h22.245l-2.483-2.483a1.92 1.92 0 0 1 0-2.714"/><path fill="#fff" d="M21.311 17.28 32.831 24l-11.52 6.72z"/></g></svg>